<?xml version="1.0" encoding="UTF-8" standalone="no"?>
<svg
   width="68.674927"
   height="20"
   viewBox="0 0 68.674927 20"
   version="1.1"
   id="svg9"
   sodipodi:docname="Friendly Tech Logo.svg"
   xmlns:inkscape="http://www.inkscape.org/namespaces/inkscape"
   xmlns:sodipodi="http://sodipodi.sourceforge.net/DTD/sodipodi-0.dtd"
   xmlns="http://www.w3.org/2000/svg"
   xmlns:svg="http://www.w3.org/2000/svg">
  <defs
     id="defs9" />
  <sodipodi:namedview
     id="namedview9"
     pagecolor="#ffffff"
     bordercolor="#666666"
     borderopacity="1.0"
     inkscape:showpageshadow="2"
     inkscape:pageopacity="0.0"
     inkscape:pagecheckerboard="0"
     inkscape:deskcolor="#d1d1d1">
    <inkscape:page
       x="0"
       y="0"
       width="68.674927"
       height="20"
       id="page2"
       margin="0"
       bleed="0" />
  </sodipodi:namedview>
  <path
     d="m 28.414344,5.9211779 c 3.87544,-0.29109 7.25357,2.61339 7.5467,6.4887201 0.293,3.8752 -2.60991,7.25476 -6.485,7.54969 -3.87784,0.29518 -7.26017,-2.61014 -7.55342,-6.48811 -0.29325,-3.8779701 2.61375,-7.2588601 6.49172,-7.5503001 z"
     id="path2"
     style="stroke-width:0.120184" />
  <path
     fill="#ffffff"
     d="m 28.252814,8.8714479 c 2.2502,-0.37906 4.38022,1.1421001 4.75171,3.3936201 0.3716,2.25141 -1.15677,4.37637 -3.40949,4.74029 -2.24203,0.36211 -4.35462,-1.15737 -4.7243,-3.39807 -0.36981,-2.24083 1.14258,-4.3584701 3.38208,-4.7358401 z"
     id="path3"
     style="stroke-width:0.120184" />
  <path
     d="m 52.412864,0.66782794 c 1.04992,-0.0399 1.7113,0.24782 1.82883,1.37225996 0.12548,1.19991 0.0844,2.40631 0.0841,3.61212 l -0.005,6.1380201 c 1.49316,-1.66286 4.21892,-4.8026601 6.0093,-5.8926101 0.20576,0.0954 0.56703,0.27643 0.73805,0.41584 1.58402,1.29089 -1.22491,3.57931 -2.09973,4.4715501 -0.51787,0.52713 -1.01988,1.06964 -1.50554,1.62657 1.3249,1.77932 2.80256,3.27873 4.14561,4.99387 0.9253,1.60806 -0.51534,3.08043 -1.89818,1.99181 -0.63336,-0.49853 -1.35062,-1.46997 -1.88496,-2.1019 -0.94368,-1.09968 -1.87751,-2.20777 -2.80136,-3.32416 -0.2334,0.19061 -0.50056,0.47353 -0.71882,0.69034 0.0173,0.50249 0.0312,1.00509 0.0419,1.50782 0.0204,1.22419 0.13653,3.64637 -1.67849,3.61573 -0.57928,-0.01 -0.94753,-0.33604 -1.31625,-0.74166 -0.0937,-0.39059 -0.12571,-0.79104 -0.14025,-1.19174 -0.12067,-3.32079 0.043,-6.64087 -0.029,-9.9644301 -0.046,-2.11968 -0.0876,-4.31002 0.19854,-6.41071 0.0459,-0.33712 0.75404,-0.66918996 1.03082,-0.80871996 z"
     id="path4"
     style="stroke-width:0.120184" />
  <path
     d="m 5.2157744,5.9758579 c 1.67956,-0.14482 4.59654,0.11886 5.1493896,2.05683 -0.5391496,2.5633901 -2.3160596,0.75836 -3.9927496,0.5776 -0.62255,-0.0671 -1.29606,-0.14915 -1.82679,0.27931 -0.25755,0.20791 -0.57736,0.53253 -0.59383,0.88743 0.0388,1.3845201 3.09978,1.6490401 4.14911,2.1755701 0.78744,0.3281 1.60228,0.7991 2.1489996,1.46876 1.35267,1.65709 0.91424,4.14754 -0.7149696,5.44204 -1.40964,1.12023 -3.27513,1.24979 -4.98462,1.06987 -1.59544,-0.1739 -5.61258,-1.17131 -4.28599,-3.56512 0.63373,-1.14343 1.909,-0.22595 2.72252,0.19854 1.61034,0.84032 4.14057,1.35639 5.12018,-0.65741 -0.75162,-1.53943 -2.20549,-1.56118 -3.63976,-2.0996 -1.61911,-0.60789 -3.34603,-1.52514 -3.62474,-3.41767 -0.42641,-2.8964201 1.94397,-4.0672501 4.37325,-4.4161501 z"
     id="path5"
     style="stroke-width:0.120184" />
  <path
     d="m 14.896564,0.74582794 c 1.61479,-0.0703 2.01308,0.74537996 2.00443,2.26473996 -0.006,1.09523 -0.0148,2.20681 -0.018,3.30325 1.23428,-0.0248 1.94084,-0.10108 3.1267,0.24662 0.84861,0.85895 0.9432,1.80155 -0.38904,2.12208 -0.91616,0.2203 -1.82763,0.16742 -2.76158,0.15564 -0.063,0.90955 -0.0884,2.3622101 -0.0359,3.2366601 0.14686,1.40423 -0.52437,4.83656 1.62175,4.94124 1.7738,0.0865 2.60787,-0.262 2.31534,1.93219 -0.0457,0.057 -0.0936,0.11225 -0.14362,0.16561 -1.25796,1.35652 -4.28118,0.94621 -5.53445,-0.24313 -1.51612,-1.43872 -1.27083,-4.24933 -1.28176,-6.16843 l -0.0292,-3.7780901 c -0.50862,-0.032 -0.94404,-0.0939 -1.34678,-0.43002 -0.2495,-0.20479 -0.40514,-0.50225 -0.43122,-0.8241 -0.0237,-0.30887 0.0803,-0.61414 0.28772,-0.84441 0.41344,-0.45982 0.91821,-0.48867 1.48127,-0.52496 -0.13449,-1.16061 -0.21838,-3.87749 0.30094,-4.91635 0.19746,-0.39492996 0.43651,-0.51174996 0.83347,-0.63853996 z"
     id="path6"
     style="stroke-width:0.120184" />
  <path
     d="m 43.594384,5.9758579 c 1.40291,-0.2114 4.75795,0.17799 4.97585,1.80913 0.27185,2.03447 -0.84429,1.7286 -2.05815,1.28789 -1.95707,-0.71053 -4.43598,-0.27847 -5.57352,1.5979601 -0.6187,1.00858 -0.80667,2.22328 -0.52171,3.37163 0.67098,2.71531 3.46056,3.58869 5.93346,2.88225 0.84886,-0.24253 1.10101,-0.89501 2.07486,-0.24085 l 0.0601,0.041 c 0.25875,0.64587 0.48878,1.38692 -0.0168,1.98471 -0.67579,0.72687 -1.73004,1.02469 -2.68658,1.16555 -6.70253,0.98754 -10.99681,-5.72135 -7.08135,-11.2838101 1.06615,-1.51456 3.01157,-2.38468 4.89388,-2.61544 z"
     id="path7"
     style="stroke-width:0.120184" />
  <path
     d="m 66.357174,6.0277779 c 1.40267,0.0725 1.8435,0.4162 1.87967,1.85251 0.0732,3.2348701 0.0937,6.4846301 -0.0194,9.7186601 -0.0434,1.24113 0.01,1.66118 -1.21445,2.18518 -0.67063,-0.028 -1.10629,-0.13052 -1.67176,-0.50598 -0.15708,-0.61353 -0.25202,-1.24125 -0.28339,-1.87378 -0.0941,-1.63258 -0.001,-3.56705 -0.0349,-5.23003 0.0131,-1.5172 -0.023,-3.0388501 0.0476,-4.5543601 0.0416,-0.89345 0.43422,-1.37166 1.29654,-1.5922 z"
     id="path8"
     style="stroke-width:0.120184" />
  <path
     d="m 66.337464,0.02940794 c 0.70836,-0.12282 1.42802,0.14471 1.88424,0.70055 0.4561,0.55572996 0.5782,1.31372996 0.31957,1.98459996 -0.25864,0.67086 -0.85799,1.15076 -1.56912,1.25652 -1.08129,0.16092 -2.09083,-0.57784 -2.26462,-1.65721 -0.17379,-1.07937 0.55273,-2.09768996 1.62993,-2.28445996 z"
     id="path9"
     style="stroke-width:0.120184" />
</svg>
